<svg width="20" height="20" viewBox="0 0 20 20" fill="#FB743E" xmlns="http://www.w3.org/2000/svg">
<path fill="white" d="M5.49997 18.9999H2.79999C2.3226 18.9999 1.86477 18.8102 1.5272 18.4727C1.18964 18.1351 1 17.6773 1 17.1999V10.8999C1 10.4226 1.18964 9.96472 1.5272 9.62715C1.86477 9.28959 2.3226 9.09995 2.79999 9.09995H5.49997M11.7999 7.29996V3.69998C11.7999 2.9839 11.5155 2.29715 11.0091 1.79081C10.5028 1.28446 9.81603 1 9.09995 1L5.49997 9.09995V18.9999H15.6519C16.086 19.0048 16.5072 18.8527 16.838 18.5715C17.1688 18.2903 17.3868 17.8991 17.4519 17.4699L18.6939 9.36995C18.733 9.11197 18.7156 8.84856 18.6429 8.59798C18.5701 8.34739 18.4438 8.11562 18.2726 7.91872C18.1013 7.72182 17.8894 7.5645 17.6513 7.45765C17.4133 7.35081 17.1548 7.29701 16.8939 7.29996H11.7999Z" stroke="#FB743E" stroke-width="2" stroke-linecap="round" stroke-linejoin="round"/>
</svg>
